<svg xmlns="http://www.w3.org/2000/svg" viewBox="0 0 250 250"><defs><style>.cls-1{fill:#282828;}.cls-2{fill:red;}</style></defs><g id="Camada_2" data-name="Camada 2"><g id="Camada_1-2" data-name="Camada 1"><circle class="cls-1" cx="125" cy="125" r="125"/><path class="cls-2" d="M159.4,48.23H90.6A42.42,42.42,0,0,0,48.23,90.6v68.8A42.41,42.41,0,0,0,90.6,201.77h68.8a42.42,42.42,0,0,0,42.37-42.37V90.6A42.42,42.42,0,0,0,159.4,48.23ZM188.15,159.4a28.79,28.79,0,0,1-28.75,28.75H90.6A28.79,28.79,0,0,1,61.85,159.4V90.6A28.79,28.79,0,0,1,90.6,61.85h68.8A28.79,28.79,0,0,1,188.15,90.6v68.8Z"/><path class="cls-2" d="M125,85.44A39.57,39.57,0,1,0,164.57,125,39.61,39.61,0,0,0,125,85.44Zm0,65.5A25.94,25.94,0,1,1,150.94,125,26,26,0,0,1,125,150.94Z"/><path class="cls-2" d="M166.22,73.88a10,10,0,1,0,7.07,2.93A10,10,0,0,0,166.22,73.88Z"/></g></g></svg>